<svg width="126" height="57" viewBox="0 0 126 57" fill="none" xmlns="http://www.w3.org/2000/svg">
<path d="M18.5255 11.6777V29.4216H26.117V33.8549H13.5013V11.6777H18.5255Z" fill="#4B6F75"/>
<path d="M29.3124 32.2135C27.7899 30.8518 27.0286 29.1049 27.0286 26.9727C27.0286 24.8404 27.8214 23.0909 29.4069 21.7213C30.995 20.349 32.9572 19.6629 35.2921 19.6629C37.5916 19.6629 39.5289 20.353 41.1039 21.7318C42.6815 23.112 43.4716 24.8589 43.4716 26.9727C43.4716 29.0877 42.6999 30.8307 41.1564 32.2029C39.6155 33.5725 37.6612 34.256 35.2921 34.256C32.8312 34.256 30.8375 33.5752 29.3124 32.2135ZM32.9769 24.6346C32.3639 25.2442 32.0581 26.0227 32.0581 26.9727C32.0581 27.9227 32.3521 28.6985 32.9401 29.3002C33.5281 29.8992 34.3025 30.1974 35.2659 30.1974C36.1925 30.1974 36.9537 29.8939 37.5496 29.2843C38.1481 28.6761 38.4474 27.9055 38.4474 26.9727C38.4474 26.0227 38.1389 25.2442 37.5234 24.6346C36.9065 24.0263 36.1544 23.7215 35.2659 23.7215C34.355 23.7215 33.5924 24.0263 32.9769 24.6346Z" fill="#161F20"/>
<path d="M45.1074 33.8549V10.7382H49.8377V33.8549H45.1074Z" fill="#4B6F75"/>
<path d="M52.4608 33.8549V10.7382H57.1911V33.8549H52.4608Z" fill="#4B6F75"/>
<path d="M60.2657 12.3796C60.8182 11.8241 61.4784 11.5457 62.2449 11.5457C63.0114 11.5457 63.6703 11.8241 64.2242 12.3796C64.7767 12.9364 65.0537 13.5988 65.0537 14.3693C65.0537 15.1399 64.7767 15.8036 64.2242 16.359C63.6703 16.9119 63.0114 17.1877 62.2449 17.1877C61.4784 17.1877 60.8182 16.9119 60.2657 16.359C59.7118 15.8036 59.4362 15.1399 59.4362 14.3693C59.4362 13.5988 59.7118 12.9364 60.2657 12.3796ZM59.8142 20.064V33.8549H64.5444V20.064H59.8142Z" fill="#4B6F75"/>
<path d="M81.4133 21.774C82.6969 23.1779 83.34 24.9024 83.34 26.9463C83.34 28.9914 82.6969 30.7199 81.4133 32.1343C80.1323 33.5488 78.5021 34.256 76.5255 34.256C74.7051 34.256 73.2075 33.6834 72.0315 32.5354V40.8427H67.3013V20.064H71.979V21.6263H72.0315C73.2075 20.3174 74.7051 19.6629 76.5255 19.6629C78.5021 19.6629 80.1323 20.3675 81.4133 21.774ZM77.3918 29.2843C78.0073 28.6761 78.3158 27.8963 78.3158 26.9463C78.3158 25.9963 78.0218 25.2231 77.4338 24.624C76.8458 24.0224 76.0701 23.7215 75.108 23.7215C74.1801 23.7215 73.4175 24.0263 72.819 24.6346C72.2231 25.2442 71.9265 26.0147 71.9265 26.9463C71.9265 27.8963 72.2323 28.6761 72.8453 29.2843C73.4608 29.8939 74.2155 30.1974 75.108 30.1974C76.0136 30.1974 76.7749 29.8939 77.3918 29.2843Z" fill="#4B6F75"/>
<path d="M86.2676 32.2135C84.7451 30.8518 83.9839 29.1049 83.9839 26.9727C83.9839 24.8404 84.7766 23.0909 86.3621 21.7213C87.9502 20.349 89.9124 19.6629 92.2474 19.6629C94.5469 19.6629 96.4841 20.353 98.0591 21.7318C99.6367 23.112 100.427 24.8589 100.427 26.9727C100.427 29.0877 99.6551 30.8307 98.1116 32.2029C96.5707 33.5725 94.6164 34.256 92.2474 34.256C89.7864 34.256 87.7927 33.5752 86.2676 32.2135ZM89.9321 24.6346C89.3192 25.2442 89.0134 26.0227 89.0134 26.9727C89.0134 27.9227 89.3074 28.6985 89.8954 29.3002C90.4834 29.8992 91.2577 30.1974 92.2211 30.1974C93.1477 30.1974 93.909 29.8939 94.5049 29.2843C95.1034 28.6761 95.4026 27.9055 95.4026 26.9727C95.4026 26.0227 95.0942 25.2442 94.4786 24.6346C93.8617 24.0263 93.1097 23.7215 92.2211 23.7215C91.3102 23.7215 90.5477 24.0263 89.9321 24.6346Z" fill="#4B6F75"/>
<path d="M116.175 21.774C117.458 23.1779 118.101 24.9024 118.101 26.9463C118.101 28.9914 117.458 30.7199 116.175 32.1343C114.894 33.5488 113.264 34.256 111.287 34.256C109.466 34.256 107.969 33.6834 106.793 32.5354V40.8427H102.063V20.064H106.74V21.6263H106.793C107.969 20.3174 109.466 19.6629 111.287 19.6629C113.264 19.6629 114.894 20.3675 116.175 21.774ZM112.153 29.2843C112.769 28.6761 113.077 27.8963 113.077 26.9463C113.077 25.9963 112.783 25.2231 112.195 24.624C111.607 24.0224 110.831 23.7215 109.869 23.7215C108.941 23.7215 108.179 24.0263 107.58 24.6346C106.985 25.2442 106.688 26.0147 106.688 26.9463C106.688 27.8963 106.994 28.6761 107.607 29.2843C108.222 29.8939 108.977 30.1974 109.869 30.1974C110.775 30.1974 111.536 29.8939 112.153 29.2843Z" fill="#4B6F75"/>
<mask id="mask0_6_38" style="mask-type:luminance" maskUnits="userSpaceOnUse" x="33" y="34" width="4" height="18">
<path d="M33.936 34.2845H36.624V51.0018H33.936V34.2845Z" fill="white"/>
</mask>
<g mask="url(#mask0_6_38)">
<path d="M34.0633 34.5892H36.3563V51.0031H34.0633V34.5892Z" fill="#EAB394"/>
</g>
<path d="M35.1435 47.1715V46.4695C35.1474 46.4115 35.1422 46.3534 35.1277 46.2967C35.1067 46.2439 35.0726 46.2017 35.0241 46.1726C34.9742 46.1423 34.9217 46.1304 34.8652 46.137C34.8075 46.1423 34.7563 46.1647 34.7143 46.2043C34.6723 46.2452 34.6474 46.2954 34.6408 46.3534C34.6382 46.364 34.6369 46.3745 34.6369 46.3851V47.5409C34.6329 47.6003 34.6461 47.657 34.6762 47.7098C34.7419 47.8061 34.8324 47.8417 34.9453 47.8154C35.0569 47.7929 35.1212 47.7256 35.1369 47.6122C35.1435 47.5435 35.1448 47.4763 35.1409 47.4076L35.1435 47.1715Z" fill="#D69676"/>
<path d="M35.1435 41.4477C35.1435 40.2695 35.1382 39.0886 35.1487 37.9103C35.1487 37.7652 35.1487 37.6213 35.1435 37.4762C35.1435 37.4313 35.1343 37.3904 35.1133 37.3509C35.0936 37.3113 35.0647 37.2796 35.028 37.2545C34.9912 37.2308 34.9506 37.2163 34.9059 37.2136C34.8626 37.211 34.8206 37.2176 34.7799 37.2374C34.6881 37.2796 34.6395 37.3522 34.6369 37.4538C34.629 37.5949 34.6369 37.7388 34.6369 37.8799V43.1683C34.6369 43.7568 34.6277 44.3465 34.6329 44.935C34.6329 45.0432 34.6132 45.1857 34.6657 45.286C34.713 45.3678 34.7826 45.4113 34.8771 45.4153C34.9729 45.4219 35.049 45.3836 35.1041 45.3045C35.1658 45.2068 35.1435 45.0749 35.1435 44.964V41.4477Z" fill="#D69676"/>
<mask id="mask1_6_38" style="mask-type:luminance" maskUnits="userSpaceOnUse" x="26" y="17" width="19" height="19">
<path d="M26.3904 17.5618H44.0304V35.2978H26.3904V17.5618Z" fill="white"/>
</mask>
<g mask="url(#mask1_6_38)">
<path d="M44.0199 26.4258C44.0199 26.7161 44.0055 27.0064 43.9779 27.2953C43.9491 27.5843 43.9071 27.8706 43.8506 28.1556C43.7942 28.4406 43.7246 28.7217 43.6406 29.0001C43.5566 29.2772 43.4595 29.5503 43.3492 29.8181C43.239 30.0873 43.1156 30.3485 42.9804 30.6045C42.8439 30.8618 42.6956 31.1099 42.5355 31.3513C42.3754 31.5928 42.2034 31.8263 42.021 32.0506C41.8372 32.2749 41.6443 32.49 41.4396 32.6945C41.2361 32.9003 41.0222 33.0943 40.7991 33.279C40.5759 33.4637 40.3449 33.6366 40.1047 33.7976C39.8646 33.9585 39.6178 34.1076 39.3632 34.2449C39.1086 34.3821 38.8487 34.5061 38.5822 34.6169C38.3158 34.7278 38.0441 34.8254 37.7685 34.9099C37.4916 34.9943 37.212 35.0642 36.9298 35.121C36.6463 35.1777 36.3615 35.2199 36.074 35.249C35.7866 35.278 35.4992 35.2912 35.2104 35.2912C34.9217 35.2912 34.6342 35.278 34.3468 35.249C34.0594 35.2199 33.7745 35.1777 33.4924 35.121C33.2089 35.0642 32.9293 34.9943 32.6537 34.9099C32.3767 34.8254 32.1064 34.7278 31.8386 34.6169C31.5722 34.5061 31.3123 34.3821 31.0577 34.2449C30.8031 34.1076 30.5563 33.9585 30.3161 33.7976C30.0759 33.6366 29.8449 33.4637 29.6218 33.279C29.3987 33.0943 29.1847 32.9003 28.9813 32.6945C28.7765 32.49 28.5836 32.2749 28.4012 32.0506C28.2174 31.8263 28.0455 31.5928 27.8854 31.3513C27.7252 31.1099 27.5769 30.8618 27.4417 30.6045C27.3052 30.3485 27.1819 30.0873 27.0716 29.8181C26.9614 29.5503 26.8642 29.2772 26.7802 29.0001C26.6962 28.7217 26.6267 28.4406 26.5702 28.1556C26.5138 27.8706 26.4718 27.5843 26.4429 27.2953C26.4154 27.0064 26.4009 26.7161 26.4009 26.4258C26.4009 26.1356 26.4154 25.8453 26.4429 25.5563C26.4718 25.2674 26.5138 24.981 26.5702 24.696C26.6267 24.411 26.6962 24.13 26.7802 23.8529C26.8642 23.5745 26.9614 23.3014 27.0716 23.0335C27.1819 22.7644 27.3052 22.5031 27.4417 22.2472C27.5769 21.9912 27.7252 21.7418 27.8854 21.5003C28.0455 21.2589 28.2174 21.0267 28.4012 20.801C28.5836 20.5767 28.7765 20.3617 28.9813 20.1572C29.1847 19.9513 29.3987 19.7574 29.6218 19.5726C29.8449 19.3879 30.0759 19.2151 30.3161 19.0541C30.5563 18.8931 30.8031 18.744 31.0577 18.6068C31.3123 18.4696 31.5722 18.3456 31.8386 18.2347C32.1064 18.1239 32.3767 18.0262 32.6537 17.9418C32.9293 17.8574 33.2089 17.7874 33.4924 17.7307C33.7745 17.674 34.0594 17.6317 34.3468 17.6027C34.6342 17.575 34.9217 17.5605 35.2104 17.5605C35.4992 17.5605 35.7866 17.575 36.074 17.6027C36.3615 17.6317 36.6463 17.674 36.9298 17.7307C37.212 17.7874 37.4916 17.8574 37.7685 17.9418C38.0441 18.0262 38.3158 18.1239 38.5822 18.2347C38.8487 18.3456 39.1086 18.4696 39.3632 18.6068C39.6178 18.744 39.8646 18.8931 40.1047 19.0541C40.3449 19.2151 40.5759 19.3879 40.7991 19.5726C41.0222 19.7574 41.2361 19.9513 41.4396 20.1572C41.6443 20.3617 41.8372 20.5767 42.021 20.801C42.2034 21.0267 42.3754 21.2589 42.5355 21.5003C42.6956 21.7418 42.8439 21.9912 42.9804 22.2472C43.1156 22.5031 43.239 22.7644 43.3492 23.0335C43.4595 23.3014 43.5566 23.5745 43.6406 23.8529C43.7246 24.13 43.7942 24.411 43.8506 24.696C43.9071 24.981 43.9491 25.2674 43.9779 25.5563C44.0055 25.8453 44.0199 26.1356 44.0199 26.4258Z" fill="#FFA4BA"/>
</g>
<path d="M41.0931 29.9751C40.9172 30.1506 40.7334 30.3182 40.5431 30.4765C40.4932 30.5187 40.4407 30.5596 40.3896 30.5992C40.3147 30.6599 40.4919 30.5227 40.4158 30.5794L40.3371 30.6388C40.2399 30.7114 40.1415 30.7813 40.0431 30.8486C39.6454 31.1164 39.2267 31.3421 38.7857 31.5294L38.9064 31.478C38.2856 31.7392 37.6399 31.916 36.9731 32.0071L37.1083 31.9886C36.4363 32.0783 35.7656 32.0783 35.0936 31.9886L35.2288 32.0071C34.5594 31.9174 33.9124 31.7405 33.2889 31.478L33.4097 31.5294C33.1026 31.4001 32.8059 31.2497 32.5198 31.0808C32.3741 30.9951 32.2311 30.904 32.0932 30.809C32.025 30.7602 31.9528 30.7114 31.8846 30.6612L31.7389 30.5504C31.8662 30.6467 31.794 30.5926 31.7651 30.5702C31.4921 30.3525 31.2362 30.1176 30.9973 29.8643C30.8752 29.735 30.7584 29.6004 30.6482 29.4619C30.6351 29.446 30.6232 29.4302 30.6101 29.4144C30.5537 29.3405 30.6784 29.5001 30.6377 29.4487L30.5642 29.351C30.513 29.2785 30.4618 29.2046 30.4132 29.1307C30.2032 28.814 30.0261 28.4802 29.8791 28.1292L29.9302 28.2519C29.7255 27.7571 29.5864 27.2439 29.5129 26.7121L29.5312 26.848C29.4577 26.2978 29.4577 25.7463 29.5312 25.1961L29.5129 25.332C29.5864 24.8003 29.7255 24.2883 29.9302 23.7935L29.8791 23.9149C29.9827 23.6695 30.1009 23.432 30.2347 23.2024C30.3043 23.085 30.3765 22.9689 30.4526 22.8554C30.4894 22.8013 30.5274 22.7485 30.5642 22.6971L30.6232 22.6179C30.6718 22.5533 30.6351 22.6008 30.6232 22.6179C30.5734 22.6812 30.6154 22.6271 30.6285 22.6113C30.7991 22.3923 30.9842 22.1864 31.185 21.9925C31.2821 21.8988 31.3871 21.8091 31.4895 21.7207L31.5289 21.6903C31.5879 21.6415 31.4856 21.7233 31.4829 21.7246C31.5105 21.7075 31.5354 21.6851 31.5617 21.6666C31.6194 21.623 31.6785 21.5808 31.7389 21.5399C31.9909 21.371 32.256 21.2272 32.5342 21.1085L32.4109 21.1639C32.8086 20.9963 33.2194 20.8828 33.6459 20.8235L33.5107 20.8419C33.9504 20.7826 34.3901 20.7826 34.8298 20.8419L34.6946 20.8235C35.1212 20.8828 35.5333 20.9963 35.9297 21.1639L35.8089 21.1124C36.0019 21.1955 36.1896 21.2892 36.3707 21.3961C36.4639 21.4515 36.5544 21.5096 36.6397 21.5716C36.6831 21.6006 36.7264 21.631 36.7684 21.6626L36.8274 21.7062C36.9101 21.7695 36.7395 21.6389 36.8209 21.7022C36.9928 21.8381 37.1542 21.9872 37.3052 22.1455C37.3813 22.226 37.4535 22.3105 37.5244 22.3976C37.5296 22.4081 37.5375 22.4187 37.5467 22.4266C37.5532 22.4332 37.4732 22.3303 37.5047 22.3725L37.548 22.4305C37.5808 22.4767 37.6149 22.5229 37.6451 22.5704C37.779 22.7736 37.8932 22.9873 37.9877 23.213L37.9365 23.0903C38.0691 23.4109 38.1596 23.7421 38.2069 24.0851L38.1885 23.9492C38.2344 24.2976 38.2344 24.6472 38.1885 24.9955L38.2069 24.8596C38.1596 25.2027 38.0691 25.5352 37.9365 25.8545L37.9877 25.7331C37.9037 25.931 37.8052 26.121 37.6911 26.3031C37.6294 26.3994 37.5637 26.4905 37.4968 26.5828C37.6031 26.4351 37.4837 26.5973 37.4535 26.633C37.4233 26.6673 37.3866 26.7135 37.3472 26.753C37.2724 26.8362 37.1923 26.9153 37.1096 26.9919C37.0663 27.0301 37.0217 27.0671 36.9771 27.104C36.9101 27.1581 37.0768 27.0288 37.002 27.0842L36.9351 27.1344C36.7552 27.261 36.5636 27.3692 36.3615 27.4563L36.4836 27.4048C36.2224 27.5157 35.952 27.5896 35.6724 27.6265L35.8076 27.6094C35.5372 27.6437 35.2669 27.6437 34.9965 27.6094L35.1317 27.6265C34.8521 27.5896 34.5817 27.5157 34.3219 27.4048L34.4439 27.4563C34.2825 27.3864 34.1276 27.3046 33.9806 27.2096C33.9465 27.1871 33.9137 27.1647 33.8796 27.141L33.8218 27.0987C33.8047 27.0855 33.7417 27.038 33.8139 27.0935C33.8861 27.1502 33.8244 27.1014 33.8074 27.0882L33.7509 27.0407C33.7168 27.0117 33.684 26.98 33.6499 26.9496C33.5816 26.8889 33.5239 26.8269 33.4661 26.7623C33.4359 26.728 33.4084 26.6937 33.3795 26.6567C33.3414 26.6105 33.4543 26.7583 33.4057 26.6923C33.3913 26.6726 33.3782 26.6528 33.3637 26.633C33.264 26.4865 33.18 26.3335 33.1117 26.1698L33.1629 26.2926C33.0789 26.088 33.0225 25.8756 32.9936 25.6566L33.012 25.7925C32.9831 25.5748 32.9831 25.3571 33.012 25.1394L32.9936 25.2753C33.0225 25.0562 33.0789 24.8451 33.1629 24.6406L33.1117 24.762C33.1656 24.6327 33.2299 24.5087 33.3034 24.3899C33.348 24.3371 33.3887 24.2817 33.4241 24.2223C33.4241 24.2303 33.3467 24.32 33.39 24.2672L33.4294 24.2197C33.453 24.1907 33.4779 24.163 33.5029 24.1353C33.5501 24.0838 33.6 24.0337 33.6525 23.9862C33.6761 23.9651 33.7207 23.94 33.7365 23.9149C33.7326 23.9215 33.6367 23.9901 33.6919 23.9492C33.705 23.94 33.7181 23.9308 33.7312 23.9215C33.8467 23.8384 33.9701 23.7671 34.1001 23.7104L33.9793 23.7619C34.1368 23.6959 34.3009 23.651 34.4715 23.626L34.3363 23.6444C34.5201 23.6194 34.7051 23.6194 34.8889 23.6444L34.7537 23.626C34.923 23.651 35.0884 23.6959 35.2459 23.7619L35.1251 23.7104C35.2275 23.7539 35.3259 23.8054 35.4191 23.8648C35.4677 23.8925 35.5123 23.9242 35.5543 23.9611L35.49 23.9123L35.5281 23.9426C35.5504 23.9611 35.5714 23.9809 35.595 24.0007C35.6344 24.0363 35.6737 24.0746 35.7092 24.1155C35.7341 24.1366 35.7564 24.1617 35.7735 24.1907L35.7249 24.1221C35.7341 24.1353 35.7446 24.1485 35.7525 24.1617C35.8181 24.254 35.8719 24.3517 35.9166 24.4559L35.8654 24.3332C35.9192 24.4638 35.9572 24.5997 35.9782 24.7409L35.9599 24.605C35.9782 24.7528 35.9782 24.9005 35.9599 25.0483L35.9782 24.9124C35.9572 25.0523 35.9192 25.1895 35.8654 25.3201L35.9166 25.1987C35.8811 25.2792 35.8404 25.3571 35.7932 25.431C35.7722 25.4653 35.7472 25.4983 35.7262 25.5312C35.8194 25.3874 35.7354 25.5154 35.7026 25.551C35.6685 25.5867 35.6449 25.6104 35.6147 25.6394C35.5989 25.6526 35.5832 25.6658 35.5674 25.6803C35.5005 25.7423 35.6711 25.6117 35.5924 25.6605C35.5189 25.708 35.4427 25.7516 35.3627 25.7885L35.4834 25.7371C35.3758 25.7819 35.2629 25.8136 35.1461 25.8294L35.2813 25.811C35.1737 25.8242 35.0647 25.8242 34.9571 25.811L35.0923 25.8294C34.9755 25.8136 34.8626 25.7819 34.755 25.7371L34.8757 25.7885C34.8141 25.7608 34.7537 25.7292 34.6972 25.6935C34.6762 25.6803 34.5857 25.613 34.6592 25.6711C34.7314 25.7292 34.6329 25.6473 34.6159 25.6302C34.5922 25.6091 34.5699 25.5867 34.5476 25.5629C34.5411 25.5563 34.524 25.5286 34.5161 25.526C34.5227 25.526 34.5896 25.6289 34.5516 25.5721C34.5109 25.5128 34.4754 25.4508 34.4466 25.3848L34.4977 25.5075C34.4623 25.4204 34.4374 25.332 34.4242 25.2396L34.4426 25.3755C34.4308 25.2832 34.4308 25.1908 34.4426 25.0985L34.4242 25.2344C34.4361 25.1407 34.461 25.0496 34.4977 24.9626L34.4466 25.0839C34.4702 25.0298 34.4991 24.9771 34.5306 24.9283C34.5371 24.9177 34.5437 24.9085 34.5516 24.8979C34.5817 24.857 34.5699 24.8715 34.5161 24.9441C34.5397 24.9217 34.5594 24.8939 34.5831 24.8702C34.7681 24.6802 34.7852 24.3371 34.5831 24.1498C34.5345 24.1023 34.4807 24.0667 34.4177 24.0416C34.356 24.0165 34.2917 24.0033 34.2247 24.0033C34.1578 24.0033 34.0935 24.0165 34.0318 24.0416C33.9701 24.0667 33.915 24.1023 33.8664 24.1498C33.4609 24.5694 33.2955 25.2238 33.5226 25.7753C33.6446 26.0973 33.8507 26.3533 34.1381 26.5406C34.3888 26.7069 34.6631 26.8032 34.9611 26.8309C36.1252 26.9708 37.0702 25.8268 36.9876 24.7092C36.9705 24.4282 36.9009 24.1603 36.7776 23.9057C36.6555 23.651 36.4888 23.4307 36.2788 23.2433C35.8536 22.8673 35.3574 22.6562 34.7931 22.61C33.7286 22.5229 32.7311 23.1919 32.2849 24.1379C31.8386 25.0853 31.8793 26.2081 32.4476 27.0869C32.7456 27.5368 33.1262 27.8957 33.5921 28.1648C34.0436 28.4235 34.5266 28.5792 35.0437 28.6333C36.0399 28.7507 37.0506 28.3944 37.8 27.736C38.1701 27.4048 38.4733 27.0209 38.7069 26.5802C38.9353 26.1593 39.0902 25.7107 39.1702 25.237C39.2529 24.7462 39.2542 24.254 39.1755 23.7632C39.0954 23.271 38.9392 22.8066 38.7069 22.3672C38.2449 21.5043 37.4653 20.7984 36.5991 20.3617C36.1738 20.1439 35.7276 19.9869 35.2616 19.8893C34.7944 19.7917 34.3232 19.7573 33.8481 19.7851C33.3716 19.8141 32.9083 19.9051 32.4568 20.0582C32.0053 20.2112 31.5814 20.421 31.185 20.6876C30.3607 21.2655 29.7124 22.0017 29.2438 22.8963C28.7923 23.7513 28.5364 24.6617 28.476 25.6276C28.4169 26.5564 28.5495 27.4563 28.875 28.3271C29.2228 29.2573 29.7504 30.0701 30.4566 30.7655C31.1338 31.4331 31.9042 31.9622 32.7692 32.3528C33.6459 32.7473 34.5621 32.9808 35.5176 33.0547C36.4297 33.122 37.3262 33.0349 38.2095 32.7948C39.1072 32.552 39.9381 32.1628 40.7019 31.6258C41.097 31.3474 41.4671 31.0373 41.8097 30.6955C41.9974 30.5069 42.0118 30.1598 41.8097 29.9751C41.7611 29.9276 41.706 29.892 41.6443 29.8669C41.5826 29.8419 41.5183 29.8287 41.4514 29.8287C41.3844 29.8287 41.3201 29.8419 41.2584 29.8669C41.1967 29.892 41.1416 29.9276 41.0931 29.9751Z" fill="#FCF1EB"/>
<path d="M43.3235 40.2252C43.3865 40.2252 43.439 40.2463 43.481 40.2886C43.5256 40.3308 43.5492 40.3836 43.5492 40.4469C43.5492 40.5102 43.5256 40.563 43.481 40.6052C43.439 40.6448 43.3865 40.6633 43.3235 40.6633H41.4125C41.3495 40.6633 41.297 40.6422 41.255 40.5999C41.213 40.5551 41.192 40.4997 41.192 40.4363V36.9952C41.192 36.9319 41.213 36.8791 41.255 36.8369C41.2996 36.7947 41.356 36.7736 41.423 36.7736C41.486 36.7736 41.5385 36.7947 41.5805 36.8369C41.6251 36.8791 41.6487 36.9319 41.6487 36.9952V40.3255L41.5385 40.2252H43.3235Z" fill="#90D6E1"/>
<path d="M48.7629 37.3488L47.4661 40.5313C47.4517 40.5736 47.4255 40.6092 47.3874 40.6369C47.352 40.662 47.3139 40.6738 47.2719 40.6738C47.201 40.6738 47.1485 40.6567 47.1144 40.6211C47.0829 40.5828 47.0671 40.5366 47.0671 40.4838C47.0632 40.4601 47.0671 40.4337 47.0776 40.4047L48.5109 36.9002C48.528 36.8474 48.5555 36.8105 48.5949 36.7894C48.633 36.7656 48.6763 36.7551 48.7261 36.7577C48.7747 36.7577 48.818 36.7709 48.8574 36.7947C48.8955 36.8197 48.9217 36.8554 48.9361 36.9002L50.3641 40.3677C50.3746 40.3994 50.3799 40.4297 50.3799 40.4574C50.3799 40.5247 50.3563 40.5775 50.3116 40.6158C50.2696 40.6554 50.2198 40.6738 50.1646 40.6738C50.1187 40.6738 50.0767 40.662 50.0386 40.6369C50.0032 40.6092 49.977 40.5722 49.9599 40.5261L48.6421 37.3436L48.7629 37.3488ZM47.7444 39.6236L47.9281 39.1908H49.5714L49.6554 39.6236H47.7444Z" fill="#90D6E1"/>
<path d="M57.0919 36.7736C57.1549 36.7736 57.2035 36.7934 57.2389 36.8316C57.277 36.8712 57.2967 36.92 57.2967 36.9794V40.4311C57.2967 40.5023 57.2731 40.5577 57.2284 40.5999C57.1864 40.6422 57.1339 40.6633 57.0709 40.6633C57.0355 40.6633 57.0001 40.658 56.9659 40.6474C56.9344 40.6343 56.9095 40.6145 56.8924 40.5894L54.5299 37.4438L54.6402 37.3805V40.4574C54.6402 40.5181 54.6192 40.567 54.5772 40.6052C54.5378 40.6448 54.4892 40.6633 54.4302 40.6633C54.3698 40.6633 54.3212 40.6448 54.2832 40.6052C54.2477 40.567 54.2307 40.5181 54.2307 40.4574V36.9952C54.2307 36.9293 54.2517 36.8765 54.2937 36.8369C54.3357 36.7947 54.3856 36.7736 54.4459 36.7736C54.4774 36.7736 54.5102 36.7815 54.5457 36.7947C54.5798 36.8052 54.6061 36.825 54.6244 36.8527L56.9607 39.9508L56.8872 40.0405V36.9794C56.8872 36.92 56.9056 36.8712 56.9449 36.8316C56.983 36.7934 57.0316 36.7736 57.0919 36.7736Z" fill="#90D6E1"/>
<path d="M61.7279 36.7736H63.6967C63.7597 36.7736 63.8122 36.7947 63.8542 36.8369C63.8988 36.8765 63.9224 36.9266 63.9224 36.9899C63.9224 37.0533 63.8988 37.1047 63.8542 37.143C63.8122 37.1826 63.7597 37.2011 63.6967 37.2011H61.9169L61.9642 37.1061V38.5099L61.9117 38.4519H63.4447C63.5077 38.4519 63.5602 38.473 63.6022 38.5152C63.6468 38.5548 63.6704 38.6049 63.6704 38.6683C63.6704 38.7316 63.6468 38.7831 63.6022 38.8213C63.5602 38.8609 63.5077 38.8794 63.4447 38.8794H61.9274L61.9642 38.8319V40.2674L61.9327 40.2305H63.6967C63.7597 40.2305 63.8122 40.2543 63.8542 40.2991C63.8988 40.3413 63.9224 40.3915 63.9224 40.4469C63.9224 40.5102 63.8988 40.563 63.8542 40.6052C63.8122 40.6448 63.7597 40.6633 63.6967 40.6633H61.7279C61.6649 40.6633 61.6124 40.6422 61.5704 40.5999C61.5284 40.5551 61.5074 40.4997 61.5074 40.4363V36.9952C61.5074 36.9319 61.5284 36.8791 61.5704 36.8369C61.6124 36.7947 61.6649 36.7736 61.7279 36.7736Z" fill="#90D6E1"/>
</svg>
